<svg xmlns="http://www.w3.org/2000/svg" viewBox="0 0 800 600" aria-hidden="true"><g fill="none" stroke="#33443A" stroke-width="1.2"><ellipse cx="400.00" cy="245.00" rx="235.00" ry="38.00" transform="rotate(38.00 400.00 245.00)"/><ellipse cx="404.37" cy="247.56" rx="227.34" ry="49.31" transform="rotate(37.73 404.37 247.56)"/><ellipse cx="408.64" cy="250.12" rx="219.71" ry="60.57" transform="rotate(37.47 408.64 250.12)"/><ellipse cx="412.73" cy="252.67" rx="212.17" ry="71.70" transform="rotate(37.20 412.73 252.67)"/><ellipse cx="416.55" cy="255.23" rx="204.75" ry="82.66" transform="rotate(36.94 416.55 255.23)"/><ellipse cx="420.01" cy="257.79" rx="197.49" ry="93.37" transform="rotate(36.67 420.01 257.79)"/><ellipse cx="423.05" cy="260.35" rx="190.43" ry="103.79" transform="rotate(36.41 423.05 260.35)"/><ellipse cx="425.60" cy="262.91" rx="183.61" ry="113.86" transform="rotate(36.14 425.60 262.91)"/><ellipse cx="427.60" cy="265.47" rx="177.06" ry="123.52" transform="rotate(35.88 427.60 265.47)"/><ellipse cx="429.02" cy="268.02" rx="170.83" ry="132.73" transform="rotate(35.61 429.02 268.02)"/><ellipse cx="429.82" cy="270.58" rx="164.93" ry="141.43" transform="rotate(35.35 429.82 270.58)"/><ellipse cx="429.98" cy="273.14" rx="159.41" ry="149.59" transform="rotate(35.08 429.98 273.14)"/><ellipse cx="429.51" cy="275.70" rx="154.29" ry="157.14" transform="rotate(34.82 429.51 275.70)"/><ellipse cx="428.40" cy="278.26" rx="149.60" ry="164.06" transform="rotate(34.55 428.40 278.26)"/><ellipse cx="426.69" cy="280.81" rx="145.37" ry="170.31" transform="rotate(34.29 426.69 280.81)"/><ellipse cx="424.42" cy="283.37" rx="141.62" ry="175.85" transform="rotate(34.02 424.42 283.37)"/><ellipse cx="421.62" cy="285.93" rx="138.36" ry="180.65" transform="rotate(33.76 421.62 285.93)"/><ellipse cx="418.37" cy="288.49" rx="135.62" ry="184.70" transform="rotate(33.49 418.37 288.49)"/><ellipse cx="414.72" cy="291.05" rx="133.41" ry="187.96" transform="rotate(33.23 414.72 291.05)"/><ellipse cx="410.76" cy="293.60" rx="131.75" ry="190.42" transform="rotate(32.96 410.76 293.60)"/><ellipse cx="406.57" cy="296.16" rx="130.63" ry="192.07" transform="rotate(32.70 406.57 296.16)"/><ellipse cx="402.24" cy="298.72" rx="130.07" ry="192.90" transform="rotate(32.43 402.24 298.72)"/><ellipse cx="397.86" cy="301.28" rx="130.07" ry="192.90" transform="rotate(32.17 397.86 301.28)"/><ellipse cx="393.53" cy="303.84" rx="130.63" ry="192.07" transform="rotate(31.90 393.53 303.84)"/><ellipse cx="389.33" cy="306.40" rx="131.75" ry="190.42" transform="rotate(31.64 389.33 306.40)"/><ellipse cx="385.37" cy="308.95" rx="133.41" ry="187.96" transform="rotate(31.37 385.37 308.95)"/><ellipse cx="381.71" cy="311.51" rx="135.62" ry="184.70" transform="rotate(31.11 381.71 311.51)"/><ellipse cx="378.44" cy="314.07" rx="138.36" ry="180.65" transform="rotate(30.84 378.44 314.07)"/><ellipse cx="375.64" cy="316.63" rx="141.62" ry="175.85" transform="rotate(30.58 375.64 316.63)"/><ellipse cx="373.35" cy="319.19" rx="145.37" ry="170.31" transform="rotate(30.31 373.35 319.19)"/><ellipse cx="371.63" cy="321.74" rx="149.60" ry="164.06" transform="rotate(30.05 371.63 321.74)"/><ellipse cx="370.51" cy="324.30" rx="154.29" ry="157.14" transform="rotate(29.78 370.51 324.30)"/><ellipse cx="370.02" cy="326.86" rx="159.41" ry="149.59" transform="rotate(29.52 370.02 326.86)"/><ellipse cx="370.17" cy="329.42" rx="164.93" ry="141.43" transform="rotate(29.25 370.17 329.42)"/><ellipse cx="370.96" cy="331.98" rx="170.83" ry="132.73" transform="rotate(28.99 370.96 331.98)"/><ellipse cx="372.36" cy="334.53" rx="177.06" ry="123.52" transform="rotate(28.72 372.36 334.53)"/><ellipse cx="374.35" cy="337.09" rx="183.61" ry="113.86" transform="rotate(28.46 374.35 337.09)"/><ellipse cx="376.89" cy="339.65" rx="190.43" ry="103.79" transform="rotate(28.19 376.89 339.65)"/><ellipse cx="379.92" cy="342.21" rx="197.49" ry="93.37" transform="rotate(27.93 379.92 342.21)"/><ellipse cx="383.37" cy="344.77" rx="204.75" ry="82.66" transform="rotate(27.66 383.37 344.77)"/><ellipse cx="387.19" cy="347.33" rx="212.17" ry="71.70" transform="rotate(27.40 387.19 347.33)"/><ellipse cx="391.27" cy="349.88" rx="219.71" ry="60.57" transform="rotate(27.13 391.27 349.88)"/><ellipse cx="395.54" cy="352.44" rx="227.34" ry="49.31" transform="rotate(26.87 395.54 352.44)"/><ellipse cx="399.90" cy="355.00" rx="235.00" ry="38.00" transform="rotate(26.60 399.90 355.00)"/></g></svg>